<svg width="11724" height="3305" viewBox="0 0 11724 3305" fill="none" xmlns="http://www.w3.org/2000/svg">
<path fill-rule="evenodd" clip-rule="evenodd" d="M3462.6 0H4036.35V3071.34H3462.6V0ZM9964.75 1127.96C9939.95 1127.96 9919.85 1148.06 9919.85 1172.86V2221.18C9937.12 2214.26 9954.76 2208.08 9972.74 2202.68V1180.85H10581.3C10728.7 1180.85 10868.3 1197.32 11000.1 1230.27C11133.6 1263.21 11249.8 1316.96 11348.6 1391.52C11447.4 1464.35 11525.5 1559.71 11582.7 1677.62C11587.8 1687.78 11592.6 1698.13 11597.3 1708.67C11592.6 1698.16 11587.8 1687.83 11582.7 1677.69C11525.5 1559.78 11447.5 1464.41 11348.6 1391.59C11249.8 1317.03 11133.6 1263.28 11000.1 1230.34C10868.3 1197.39 10728.7 1180.92 10581.4 1180.92H9972.76V2202.68C10030.7 2185.27 10092.1 2175.92 10155.7 2175.92C10254.5 2175.92 10348 2198.49 10431.4 2238.75V1608.27H10617.8C10698 1608.27 10773.5 1618.9 10844.7 1639.91L10845.3 1640.11L10846 1640.29C10918.2 1659.55 10979.5 1688.86 11030.6 1727.58C11080.8 1765.67 11120.7 1814.52 11150.2 1875.04L11150.6 1875.78L11151 1876.51C11180.9 1933.36 11196.9 2002.58 11196.9 2085.96C11196.9 2184.32 11180.5 2264.53 11150 2328.51L11149.8 2329.01C11120.3 2392.61 11079.7 2443.65 11028.2 2483.19C10975.8 2521.59 10912.5 2550.01 10837.2 2567.64L10836.9 2567.7C10808.6 2574.47 10779.2 2580 10748.8 2584.25C10755.2 2600.92 10760.9 2617.93 10765.8 2635.23C10794.4 2630.96 10822.2 2625.6 10849.2 2619.14C10930.7 2600.06 11001 2568.85 11059.9 2525.51C11118.9 2480.42 11164.8 2422.34 11197.8 2351.25C11232.4 2278.42 11249.8 2189.99 11249.8 2085.96C11249.8 2047.46 11246.6 2011.18 11240.3 1977.11C11246.6 2011.2 11249.8 2047.51 11249.8 2086.02C11249.8 2190.06 11232.4 2278.49 11197.8 2351.31C11164.8 2422.4 11118.9 2480.49 11059.9 2525.57C11001 2568.92 10930.7 2600.13 10849.3 2619.2C10822.2 2625.66 10794.4 2631.03 10765.8 2635.3C10781.8 2690.97 10790.4 2749.78 10790.4 2810.59C10790.4 2903.7 10770.3 2992.13 10734.3 3071.8C10841.3 3064.39 10944.8 3044.77 11044.8 3012.83C11175.3 2971.13 11291.3 2910.11 11392.1 2829.5L11392.5 2829.13C11493.8 2746.25 11573.9 2644.9 11632.7 2525.6C11694.1 2402.73 11724 2262.67 11724 2106.76C11724 1932.69 11693.5 1781.18 11630.1 1654.25C11569.5 1529.38 11486.2 1427.29 11380.2 1349.12C11275.1 1269.91 11152.4 1213.38 11012.8 1178.94C10876.5 1144.87 10732.7 1127.96 10581.3 1127.96H9964.75ZM10155.6 3127.75C10330.9 3127.75 10472.9 2985.68 10472.9 2810.42C10472.9 2635.16 10330.9 2493.08 10155.6 2493.08C9980.34 2493.08 9838.26 2635.16 9838.26 2810.42C9838.26 2985.68 9980.34 3127.75 10155.6 3127.75ZM6446.69 1212.81H6997.49V1465.25H7005.14C7022.99 1429.55 7048.49 1393.85 7081.63 1358.16C7114.78 1322.46 7154.31 1290.58 7200.21 1262.53C7246.11 1234.48 7298.38 1211.53 7357.03 1193.68C7415.68 1175.83 7479.43 1166.91 7548.28 1166.91C7678.33 1166.91 7793.07 1193.68 7892.52 1247.23C7994.52 1300.78 8071.02 1384.93 8122.02 1499.68C8188.32 1379.83 8268.64 1294.41 8362.99 1243.41C8457.34 1192.41 8573.36 1166.91 8711.06 1166.91C8836.01 1166.91 8940.55 1188.58 9024.7 1231.93C9111.4 1272.73 9178.98 1330.11 9227.43 1404.05C9278.42 1475.45 9314.12 1560.88 9334.52 1660.33C9357.47 1757.22 9368.95 1861.77 9368.95 1973.97V3071.73H8795.21V1989.27C8795.21 1902.57 8776.08 1828.62 8737.83 1767.42C8702.13 1703.67 8637.11 1671.8 8542.76 1671.8C8476.46 1671.8 8420.36 1683.28 8374.46 1706.22C8331.12 1726.62 8295.42 1755.95 8267.37 1794.2C8241.87 1832.45 8222.74 1877.07 8209.99 1928.07C8199.79 1979.07 8194.69 2032.62 8194.69 2088.72V3071.73H7620.95V2088.72C7620.95 2055.57 7619.68 2014.77 7617.13 1966.32C7614.58 1917.87 7605.65 1871.97 7590.35 1828.62C7575.05 1785.27 7549.55 1748.3 7513.85 1717.7C7480.7 1687.1 7430.98 1671.8 7364.68 1671.8C7290.73 1671.8 7230.81 1685.83 7184.91 1713.87C7139.01 1739.37 7103.31 1775.07 7077.81 1820.97C7054.86 1864.32 7039.56 1914.05 7031.91 1970.15C7024.26 2026.24 7020.44 2084.89 7020.44 2146.09V3071.73H6446.69V1212.81ZM5664.76 1713.6C5715.19 1738.82 5754.4 1771.51 5782.39 1811.68L6076.9 1340.36L6079.77 1342.16C6009.68 1288.69 5931.27 1249.31 5844.53 1224.01C5724.68 1185.76 5609.94 1166.64 5500.29 1166.64C5357.49 1166.64 5222.34 1189.59 5094.84 1235.48C4969.9 1281.38 4860.25 1347.68 4765.9 1434.38C4674.1 1518.53 4601.43 1620.53 4547.88 1740.38C4494.33 1860.22 4467.55 1994.1 4467.55 2142C4467.55 2289.89 4494.33 2423.77 4547.88 2543.61C4601.43 2663.46 4674.1 2766.74 4765.9 2853.43C4860.25 2937.58 4969.9 3002.61 5094.84 3048.51C5222.34 3094.41 5357.49 3117.36 5500.29 3117.36C5609.94 3117.36 5724.68 3099.51 5844.53 3063.81C5966.93 3025.56 6072.75 2960.53 6162 2868.73L5783.33 2470.94C5750.18 2509.19 5710.66 2542.34 5664.76 2570.39C5618.86 2598.44 5564.04 2612.46 5500.29 2612.46C5354.94 2612.46 5241.47 2569.11 5159.87 2482.42C5080.82 2395.72 5041.3 2282.24 5041.3 2142C5041.3 2001.75 5080.82 1888.27 5159.87 1801.58C5241.47 1714.88 5354.94 1671.53 5500.29 1671.53C5558.94 1671.53 5613.76 1685.55 5664.76 1713.6ZM1455.41 939.678C1290.83 844.655 1023.98 844.645 859.388 939.655L122.637 1364.94C-40.8736 1459.33 -40.8797 1612.37 122.623 1706.77L870.428 2138.51C1028.89 2230 1285.81 2230.01 1444.28 2138.54L2194.07 1705.72C2356.5 1611.96 2356.51 1459.93 2194.09 1366.15L1455.41 939.678ZM122.637 1912.61L178.108 1880.59L870.428 2280.3C1028.89 2371.79 1285.81 2371.8 1444.28 2280.32L2136.64 1880.65L2194.09 1913.82C2356.51 2007.59 2356.5 2159.62 2194.07 2253.38L1444.28 2686.2C1285.81 2777.68 1028.89 2777.67 870.428 2686.18L122.623 2254.43C-40.8797 2160.03 -40.8736 2006.99 122.637 1912.61ZM178.108 2430.56L122.637 2462.58C-40.8736 2556.97 -40.8797 2710.01 122.623 2804.41L870.428 3236.15C1028.89 3327.64 1285.81 3327.65 1444.28 3236.17L2194.07 2803.36C2356.5 2709.59 2356.51 2557.56 2194.09 2463.79L2136.64 2430.63L1444.28 2830.29C1285.81 2921.77 1028.89 2921.76 870.428 2830.27L178.108 2430.56Z" fill="white"/>
</svg>
